<?xml version="1.0" encoding="UTF-8" standalone="no"?>
<!DOCTYPE svg PUBLIC "-//W3C//DTD SVG 1.1//EN" "http://www.w3.org/Graphics/SVG/1.1/DTD/svg11.dtd">
<svg width="100%" height="100%" viewBox="0 0 128 128" version="1.1" xmlns="http://www.w3.org/2000/svg" xmlns:xlink="http://www.w3.org/1999/xlink" xml:space="preserve" xmlns:serif="http://www.serif.com/" style="fill-rule:evenodd;clip-rule:evenodd;stroke-linejoin:round;stroke-miterlimit:2;">
    <g transform="matrix(0.314961,0,0,0.314961,-7.33858,3.05512)">
        <circle cx="226.5" cy="193.5" r="64.5" style="fill:rgb(43,48,53);"/>
    </g>
    <g transform="matrix(0.441922,0,0,0.441922,-36.0952,-21.5118)">
        <path d="M91.264,181.384C97.401,112.117 155.649,57.729 226.5,57.729C297.351,57.729 355.599,112.117 361.736,181.384L289.862,181.384C284.186,151.569 257.958,129 226.5,129C195.042,129 168.814,151.569 163.138,181.384L91.264,181.384ZM361.736,205.616C355.599,274.883 297.351,329.271 226.5,329.271C155.649,329.271 97.401,274.883 91.264,205.616L163.138,205.616C168.814,235.431 195.042,258 226.5,258C257.958,258 284.186,235.431 289.862,205.616L361.736,205.616Z" style="fill:rgb(43,48,53);"/>
    </g>
</svg>
